<svg enable-background="new 0 0 128 128" viewBox="0 0 128 128" xmlns="http://www.w3.org/2000/svg" xmlns:xlink="http://www.w3.org/1999/xlink"><linearGradient id="a" gradientUnits="userSpaceOnUse" x1="57.385" x2="57.385" y1="31.062" y2="123.15"><stop offset="0" stop-color="#ffc107"/><stop offset=".1894" stop-color="#f1af06"/><stop offset=".5692" stop-color="#cd7f02"/><stop offset=".7232" stop-color="#bd6a00"/></linearGradient><linearGradient id="b" gradientUnits="userSpaceOnUse" x1="64.328" x2="64.328" y1="57.692" y2="123.49"><stop offset="0" stop-color="#ffee58"/><stop offset=".2852" stop-color="#ffea54"/><stop offset=".5961" stop-color="#fddc48"/><stop offset=".9179" stop-color="#fcc733"/><stop offset="1" stop-color="#fbc02d"/></linearGradient><path d="m80.71 43.28h-24.04c-1.75 0-3.47-1.42-3.84-3.16l-1.27-5.98c-.37-1.75.74-3.16 2.49-3.16h24.04c1.75 0 3.47 1.42 3.84 3.16l1.27 5.98c.37 1.74-.74 3.16-2.49 3.16z" fill="#946134"/><path d="m59.2 43.28h-24.04c-1.75 0-3.47-1.42-3.84-3.16l-1.27-5.98c-.37-1.75.74-3.16 2.49-3.16h24.04c1.75 0 3.47 1.42 3.84 3.16l1.27 5.98c.37 1.74-.74 3.16-2.49 3.16z" fill="#ff8f00"/><path d="m6.83 30.97c-1.32.15-2.43 1.39-2.42 2.72-.08 35.38-.08 48.95-.08 87.03 0 1.42 1.3 2.72 2.72 2.72h95.26c.39 0 .77-.1 1.12-.27.91-.43 1.45-1.39 1.54-2.39l5.46-62.71c.01-.08.01-.16.01-.24.05-4.36.02-7.97 0-12.04-.01-3.16-2.6-5.74-5.76-5.74h-63.72c-1.29 0-2.43-.81-2.86-2.02-.54-1.52-1.3-3.66-2-5.6-.53-1.47-2.7-1.47-3.28-1.46h-25.99z" fill="url(#a)"/><path d="m101.81 123.61h-94.25c-2.33 0-3.71-1.72-3.09-3.85l17.03-57.96c.62-2.13 3.02-3.85 5.35-3.85h94.25c2.33 0 3.71 1.72 3.09 3.85l-17.03 57.96c-.63 2.13-3.02 3.85-5.35 3.85z" fill="url(#b)"/><path d="m78.09 33.97c.31 0 .82.4.9.79l1.26 5.93c.29 1.39 1.52 2.38 2.93 2.38h21.48c1.49 0 2.75 1.26 2.76 2.75l.01 2.25c.01 3.19.03 6.2-.01 9.7v.06c-.04.82.26 1.62.82 2.21.57.59 1.35.93 2.17.93h10.68c.08 0 .15.01.21.01l-17.02 57.94c-.23.77-1.38 1.69-2.47 1.69h-94.25c-.1 0-.18-.01-.23-.02v-.03c0-37.7.01-51.24.08-86.59h25.13.07zm0-3h-45.55-.01-25.71c-1.32.15-2.43 1.39-2.42 2.72-.08 35.38-.08 48.95-.08 87.03 0 .08.02.17.03.25.11 1.53 1.35 2.64 3.21 2.64h94.25c2.33 0 4.72-1.72 5.35-3.85l17.03-57.96c.62-2.13-.76-3.85-3.09-3.85h-10.68c0-.04.01-.08.01-.12.05-4.36.02-7.97 0-12.04-.01-3.16-2.6-5.74-5.76-5.74h-21.48l-1.26-5.93c-.37-1.73-2.09-3.15-3.84-3.15z" fill="#424242" opacity=".2"/></svg>